<?xml version="1.0" encoding="UTF-8" standalone="no"?>
<!-- Created with Inkscape (http://www.inkscape.org/) -->

<svg
   xmlns:dc="http://purl.org/dc/elements/1.1/"
   xmlns:cc="http://creativecommons.org/ns#"
   xmlns:rdf="http://www.w3.org/1999/02/22-rdf-syntax-ns#"
   xmlns:svg="http://www.w3.org/2000/svg"
   xmlns="http://www.w3.org/2000/svg"
   xmlns:sodipodi="http://sodipodi.sourceforge.net/DTD/sodipodi-0.dtd"
   xmlns:inkscape="http://www.inkscape.org/namespaces/inkscape"
   id="svg2985"
   version="1.1"
   inkscape:version="0.48.4 r"
   width="900"
   height="675"
   xml:space="preserve"
   sodipodi:docname="MO Test Bed (SC) v2.pdf"><metadata
     id="metadata2991"><rdf:RDF><cc:Work
         rdf:about=""><dc:format>image/svg+xml</dc:format><dc:type
           rdf:resource="http://purl.org/dc/dcmitype/StillImage" /><dc:title></dc:title></cc:Work></rdf:RDF></metadata><defs
     id="defs2989"><clipPath
       clipPathUnits="userSpaceOnUse"
       id="clipPath2999"><path
         d="m 0,1.2207e-4 720,0 0,539.99999793 -720,0 L 0,1.2207e-4 z"
         clip-rule="evenodd"
         id="path3001" /></clipPath><clipPath
       clipPathUnits="userSpaceOnUse"
       id="clipPath3009"><path
         d="m 0,1.2207e-4 720,0 0,539.99999793 -720,0 L 0,1.2207e-4 z"
         clip-rule="evenodd"
         id="path3011" /></clipPath></defs><sodipodi:namedview
     pagecolor="#ffffff"
     bordercolor="#666666"
     borderopacity="1"
     objecttolerance="10"
     gridtolerance="10"
     guidetolerance="10"
     inkscape:pageopacity="0"
     inkscape:pageshadow="2"
     inkscape:window-width="1280"
     inkscape:window-height="748"
     id="namedview2987"
     showgrid="false"
     inkscape:zoom="0.69925926"
     inkscape:cx="393.82274"
     inkscape:cy="360.6748"
     inkscape:window-x="-8"
     inkscape:window-y="-8"
     inkscape:window-maximized="1"
     inkscape:current-layer="g2993" /><g
     id="g2993"
     inkscape:groupmode="layer"
     inkscape:label="MO Test Bed (SC) v2"
     transform="matrix(1.25,0,0,-1.25,0,675)"><path
       d="m 53.875,55.375 606.62,0 0,72.75 -606.62,0 0,-72.75 z"
       style="fill:#ffff99;fill-opacity:1;fill-rule:evenodd;stroke:none"
       id="path3021" /><path
       d="m 53.875,55.375 606.62,0 0,72.75 -606.62,0 0,-72.75 z"
       style="fill:none;stroke:#136798;stroke-opacity:1;stroke-width:0.75;stroke-linecap:butt;stroke-linejoin:miter;stroke-miterlimit:10;stroke-dasharray:none"
       id="path3023" /><text
       transform="matrix(1,0,0,-1,267.91,62.568)"
       id="text3025"><tspan
         style="fill:#136798;fill-opacity:1;fill-rule:nonzero;stroke:none;font-family:Tahoma;font-variant:normal;font-weight:normal;font-size:18.024;writing-mode:lr;-inkscape-font-specification:Tahoma"
         x="0 13.896504 23.377128 31.415832 39.454536 48.917136 58.884408 63.011904 73.069296 83.036568 88.67808 102.574584 106.70208 116.669352 126.636624 130.674 140.154624 153.348192 162.810792 169.191288"
         y="0"
         sodipodi:role="line"
         id="tspan3027">Messaging Middleware</tspan></text>
<path
       d="m 104.88,85.375 499,0 0,30 -499,0 0,-30 z"
       style="fill:#ffffff;fill-opacity:1;fill-rule:evenodd;stroke:none"
       id="path3029" /><path
       d="m 104.88,85.375 499,0 0,30 -499,0 0,-30 z"
       style="fill:none;stroke:#136798;stroke-opacity:1;stroke-width:0.75;stroke-linecap:butt;stroke-linejoin:miter;stroke-miterlimit:10;stroke-dasharray:none"
       id="path3031" /><text
       transform="matrix(1,0,0,-1,313.78,96.312)"
       id="text3033"><tspan
         style="fill:#136798;fill-opacity:1;fill-rule:nonzero;stroke:none;font-family:Tahoma;font-variant:normal;font-weight:normal;font-size:9.96;writing-mode:lr;-inkscape-font-specification:Tahoma"
         x="0 7.67916 12.948 17.39016 21.83232 27.10116 32.60904 37.88784 41.11488 44.46144 48.04704 53.3358 58.85364 63.2958 68.80368 74.21196 77.79756"
         y="0"
         sodipodi:role="line"
         id="tspan3035">Message transport</tspan></text>
<path
       d="m 53.875,137.88 198,0 0,305.25 -198,0 0,-305.25 z"
       style="fill:#ffff99;fill-opacity:1;fill-rule:evenodd;stroke:none"
       id="path3037" /><path
       d="m 53.875,137.88 198,0 0,305.25 -198,0 0,-305.25 z"
       style="fill:none;stroke:#136798;stroke-opacity:1;stroke-width:0.75;stroke-linecap:butt;stroke-linejoin:miter;stroke-miterlimit:10;stroke-dasharray:none"
       id="path3039" /><text
       transform="matrix(1,0,0,-1,117.55,423.53)"
       id="text3041"><tspan
         style="fill:#136798;fill-opacity:1;fill-rule:nonzero;stroke:none;font-family:Tahoma;font-variant:normal;font-weight:normal;font-size:15.96;writing-mode:lr;-inkscape-font-specification:Tahoma"
         x="0 9.59196 18.25824 27.16392 34.28208 43.18776 56.59416 64.98912"
         y="0"
         sodipodi:role="line"
         id="tspan3043">Consumer</tspan></text>
<path
       d="m 107.88,263.12 126,0 0,12 -126,0 0,-12 z"
       style="fill:#cc99ff;fill-opacity:1;fill-rule:evenodd;stroke:none"
       id="path3045" /><path
       d="m 107.88,263.12 126,0 0,12 -126,0 0,-12 z"
       style="fill:none;stroke:#136798;stroke-opacity:1;stroke-width:0.75;stroke-linecap:butt;stroke-linejoin:miter;stroke-miterlimit:10;stroke-dasharray:none"
       id="path3047" /><text
       transform="matrix(1,0,0,-1,152.35,265.1)"
       id="text3049"><tspan
         style="fill:#136798;fill-opacity:1;fill-rule:nonzero;stroke:none;font-family:Tahoma;font-variant:normal;font-weight:normal;font-size:9.96;writing-mode:lr;-inkscape-font-specification:Tahoma"
         x="0 7.67916 13.65516 18.61524 21.83232 27.80832 33.34608"
         y="0"
         sodipodi:role="line"
         id="tspan3051">MAL API</tspan></text>
<path
       d="m 107.88,227.87 126,0 0,23.25 -126,0 0,-23.25 z"
       style="fill:#dddddd;fill-opacity:1;fill-rule:evenodd;stroke:none"
       id="path3053" /><path
       d="m 107.88,227.87 126,0 0,23.25 -126,0 0,-23.25 z"
       style="fill:none;stroke:#136798;stroke-opacity:1;stroke-width:0.75;stroke-linecap:butt;stroke-linejoin:miter;stroke-miterlimit:10;stroke-dasharray:none"
       id="path3055" /><text
       transform="matrix(1,0,0,-1,125.11,235.46)"
       id="text3057"><tspan
         style="fill:#136798;fill-opacity:1;fill-rule:nonzero;stroke:none;font-family:Tahoma;font-variant:normal;font-weight:normal;font-size:9.96;writing-mode:lr;-inkscape-font-specification:Tahoma"
         x="0 7.67916 13.65516 18.61524 21.83232 25.5474 33.94368 39.45156 41.7324 47.0112 55.39752 60.66636 66.1842 69.53076 74.7996 78.14616 80.427 85.83528"
         y="0"
         sodipodi:role="line"
         id="tspan3059">MAL Implementation</tspan></text>
<path
       d="m 107.88,203.12 126,0 0,12 -126,0 0,-12 z"
       style="fill:#cc99ff;fill-opacity:1;fill-rule:evenodd;stroke:none"
       id="path3061" /><path
       d="m 107.88,203.12 126,0 0,12 -126,0 0,-12 z"
       style="fill:none;stroke:#136798;stroke-opacity:1;stroke-width:0.75;stroke-linecap:butt;stroke-linejoin:miter;stroke-miterlimit:10;stroke-dasharray:none"
       id="path3063" /><text
       transform="matrix(1,0,0,-1,118.87,205.08)"
       id="text3065"><tspan
         style="fill:#136798;fill-opacity:1;fill-rule:nonzero;stroke:none;font-family:Tahoma;font-variant:normal;font-weight:normal;font-size:9.96;writing-mode:lr;-inkscape-font-specification:Tahoma"
         x="0 5.54772 8.87436 14.15316 19.671 25.17888 30.45768 34.04328 39.55116 42.80808 48.56496 52.15056 57.43932 62.95716 67.39932 72.9072 78.31548 81.90108 85.26756 88.73364 94.70964 100.2474"
         y="0"
         sodipodi:role="line"
         id="tspan3067">Standard Transport API</tspan></text>
<path
       d="m 89.875,215.12 12,0 0,48 -12,0 0,-48 z"
       style="fill:#cc99ff;fill-opacity:1;fill-rule:evenodd;stroke:none"
       id="path3069" /><path
       d="m 89.875,215.12 12,0 0,48 -12,0 0,-48 z"
       style="fill:none;stroke:#136798;stroke-opacity:1;stroke-width:0.75;stroke-linecap:butt;stroke-linejoin:miter;stroke-miterlimit:10;stroke-dasharray:none"
       id="path3071" /><text
       transform="matrix(0,-1,-1,0,91.92,255.94)"
       id="text3073"><tspan
         style="fill:#136798;fill-opacity:1;fill-rule:nonzero;stroke:none;font-family:Tahoma;font-variant:normal;font-weight:normal;font-size:9.984;writing-mode:lr;-inkscape-font-specification:Tahoma"
         x="0 5.521152 10.772736 15.37536 18.590208 24.580608 30.081792"
         y="0"
         sodipodi:role="line"
         id="tspan3075">Sec API</tspan></text>
<path
       d="m 59.875,227.87 24,0 0,23.25 -24,0 0,-23.25 z"
       style="fill:#98d0f1;fill-opacity:1;fill-rule:evenodd;stroke:none"
       id="path3077" /><path
       d="m 59.875,227.87 24,0 0,23.25 -24,0 0,-23.25 z"
       style="fill:none;stroke:#136798;stroke-opacity:1;stroke-width:0.75;stroke-linecap:butt;stroke-linejoin:miter;stroke-miterlimit:10;stroke-dasharray:none"
       id="path3079" /><text
       transform="matrix(1,0,0,-1,64.248,241.46)"
       id="text3081"><tspan
         style="fill:#136798;fill-opacity:1;fill-rule:nonzero;stroke:none;font-family:Tahoma;font-variant:normal;font-weight:normal;font-size:9.96;writing-mode:lr;-inkscape-font-specification:Tahoma"
         x="0 5.54772 10.78668"
         y="0"
         sodipodi:role="line"
         id="tspan3083">Sec</tspan></text>
<text
       transform="matrix(1,0,0,-1,61.968,229.46)"
       id="text3085"><tspan
         style="fill:#136798;fill-opacity:1;fill-rule:nonzero;stroke:none;font-family:Tahoma;font-variant:normal;font-weight:normal;font-size:9.96;writing-mode:lr;-inkscape-font-specification:Tahoma"
         x="0 3.71508 12.11136 17.61924"
         y="0"
         sodipodi:role="line"
         id="tspan3087">Impl</tspan></text>
<path
       d="m 462.13,137.88 198,0 0,305.25 -198,0 0,-305.25 z"
       style="fill:#ffff99;fill-opacity:1;fill-rule:evenodd;stroke:none"
       id="path3089" /><path
       d="m 462.13,137.88 198,0 0,305.25 -198,0 0,-305.25 z"
       style="fill:none;stroke:#136798;stroke-opacity:1;stroke-width:0.75;stroke-linecap:butt;stroke-linejoin:miter;stroke-miterlimit:10;stroke-dasharray:none"
       id="path3091" /><text
       transform="matrix(1,0,0,-1,532.46,423.53)"
       id="text3093"><tspan
         style="fill:#136798;fill-opacity:1;fill-rule:nonzero;stroke:none;font-family:Tahoma;font-variant:normal;font-weight:normal;font-size:15.96;writing-mode:lr;-inkscape-font-specification:Tahoma"
         x="0 8.79396 14.39592 22.91856 30.86664 34.44168 43.29948 51.69444"
         y="0"
         sodipodi:role="line"
         id="tspan3095">Provider</tspan></text>
<path
       d="m 480.13,263.12 126,0 0,12 -126,0 0,-12 z"
       style="fill:#cc99ff;fill-opacity:1;fill-rule:evenodd;stroke:none"
       id="path3097" /><path
       d="m 480.13,263.12 126,0 0,12 -126,0 0,-12 z"
       style="fill:none;stroke:#136798;stroke-opacity:1;stroke-width:0.75;stroke-linecap:butt;stroke-linejoin:miter;stroke-miterlimit:10;stroke-dasharray:none"
       id="path3099" /><text
       transform="matrix(1,0,0,-1,524.66,265.1)"
       id="text3101"><tspan
         style="fill:#136798;fill-opacity:1;fill-rule:nonzero;stroke:none;font-family:Tahoma;font-variant:normal;font-weight:normal;font-size:9.96;writing-mode:lr;-inkscape-font-specification:Tahoma"
         x="0 7.67916 13.65516 18.61524 21.83232 27.80832 33.34608"
         y="0"
         sodipodi:role="line"
         id="tspan3103">MAL API</tspan></text>
<path
       d="m 480.13,371.87 126,0 0,23.25 -126,0 0,-23.25 z"
       style="fill:#98d0f1;fill-opacity:1;fill-rule:evenodd;stroke:none"
       id="path3105" /><path
       d="m 480.13,371.87 126,0 0,23.25 -126,0 0,-23.25 z"
       style="fill:none;stroke:#136798;stroke-opacity:1;stroke-width:0.75;stroke-linecap:butt;stroke-linejoin:miter;stroke-miterlimit:10;stroke-dasharray:none"
       id="path3107" /><text
       transform="matrix(1,0,0,-1,479.42,379.51)"
       id="text3109"><tspan
         style="fill:#136798;fill-opacity:1;fill-rule:nonzero;stroke:none;font-family:Tahoma;font-variant:normal;font-weight:normal;font-size:9.96;writing-mode:lr;-inkscape-font-specification:Tahoma"
         x="0 5.6274 10.5576 15.81648 24.2028 29.71068 31.99152 37.27032 40.26828 45.77616 49.36176 54.77004 59.70024 61.98108 67.48896 72.76776 76.35336 79.60032 85.57632 91.11408 96.62196 98.9028 101.18364 105.7752 111.02412 114.37068 116.65152 122.0598"
         y="0"
         sodipodi:role="line"
         id="tspan3111">Example Provider Application</tspan></text>
<path
       d="m 480.13,227.87 126,0 0,23.25 -126,0 0,-23.25 z"
       style="fill:#dddddd;fill-opacity:1;fill-rule:evenodd;stroke:none"
       id="path3113" /><path
       d="m 480.13,227.87 126,0 0,23.25 -126,0 0,-23.25 z"
       style="fill:none;stroke:#136798;stroke-opacity:1;stroke-width:0.75;stroke-linecap:butt;stroke-linejoin:miter;stroke-miterlimit:10;stroke-dasharray:none"
       id="path3115" /><text
       transform="matrix(1,0,0,-1,497.42,235.46)"
       id="text3117"><tspan
         style="fill:#136798;fill-opacity:1;fill-rule:nonzero;stroke:none;font-family:Tahoma;font-variant:normal;font-weight:normal;font-size:9.96;writing-mode:lr;-inkscape-font-specification:Tahoma"
         x="0 7.67916 13.65516 18.61524 21.83232 25.5474 33.94368 39.45156 41.7324 47.0112 55.39752 60.66636 66.1842 69.53076 74.7996 78.14616 80.427 85.83528"
         y="0"
         sodipodi:role="line"
         id="tspan3119">MAL Implementation</tspan></text>
<path
       d="m 480.13,203.12 126,0 0,12 -126,0 0,-12 z"
       style="fill:#cc99ff;fill-opacity:1;fill-rule:evenodd;stroke:none"
       id="path3121" /><path
       d="m 480.13,203.12 126,0 0,12 -126,0 0,-12 z"
       style="fill:none;stroke:#136798;stroke-opacity:1;stroke-width:0.75;stroke-linecap:butt;stroke-linejoin:miter;stroke-miterlimit:10;stroke-dasharray:none"
       id="path3123" /><text
       transform="matrix(1,0,0,-1,491.18,205.08)"
       id="text3125"><tspan
         style="fill:#136798;fill-opacity:1;fill-rule:nonzero;stroke:none;font-family:Tahoma;font-variant:normal;font-weight:normal;font-size:9.96;writing-mode:lr;-inkscape-font-specification:Tahoma"
         x="0 5.54772 8.87436 14.15316 19.671 25.17888 30.45768 34.04328 39.55116 42.80808 48.56496 52.15056 57.43932 62.95716 67.39932 72.9072 78.31548 81.90108 85.26756 88.73364 94.70964 100.2474"
         y="0"
         sodipodi:role="line"
         id="tspan3127">Standard Transport API</tspan></text>
<path
       d="m 480.13,335.12 126,0 0,12 -126,0 0,-12 z"
       style="fill:#33cc33;fill-opacity:1;fill-rule:evenodd;stroke:none"
       id="path3129" /><path
       d="m 480.13,335.12 126,0 0,12 -126,0 0,-12 z"
       style="fill:none;stroke:#136798;stroke-opacity:1;stroke-width:0.75;stroke-linecap:butt;stroke-linejoin:miter;stroke-miterlimit:10;stroke-dasharray:none"
       id="path3131" /><text
       transform="matrix(1,0,0,-1,499.94,337.1)"
       id="text3133"><tspan
         style="fill:#136798;fill-opacity:1;fill-rule:nonzero;stroke:none;font-family:Tahoma;font-variant:normal;font-weight:normal;font-size:9.984;writing-mode:lr;-inkscape-font-specification:Tahoma"
         x="0 5.521152 10.772736 14.386944 19.309056 21.595392 26.148096 31.39968 34.774272 40.295424 45.816576 51.06816 55.670784 57.95712 61.05216 63.338496 67.8912 71.126016 77.116416 82.6176"
         y="0"
         sodipodi:role="line"
         id="tspan3135">Service Specific API</tspan></text>
<path
       d="m 612.13,215.12 12,0 0,48 -12,0 0,-48 z"
       style="fill:#cc99ff;fill-opacity:1;fill-rule:evenodd;stroke:none"
       id="path3137" /><path
       d="m 612.13,215.12 12,0 0,48 -12,0 0,-48 z"
       style="fill:none;stroke:#136798;stroke-opacity:1;stroke-width:0.75;stroke-linecap:butt;stroke-linejoin:miter;stroke-miterlimit:10;stroke-dasharray:none"
       id="path3139" /><text
       transform="matrix(0,-1,-1,0,614.28,255.94)"
       id="text3141"><tspan
         style="fill:#136798;fill-opacity:1;fill-rule:nonzero;stroke:none;font-family:Tahoma;font-variant:normal;font-weight:normal;font-size:9.96;writing-mode:lr;-inkscape-font-specification:Tahoma"
         x="0 5.54772 10.78668 15.37824 18.58536 24.56136 30.09912"
         y="0"
         sodipodi:role="line"
         id="tspan3143">Sec API</tspan></text>
<path
       d="m 630.13,227.87 24,0 0,23.25 -24,0 0,-23.25 z"
       style="fill:#98d0f1;fill-opacity:1;fill-rule:evenodd;stroke:none"
       id="path3145" /><path
       d="m 630.13,227.87 24,0 0,23.25 -24,0 0,-23.25 z"
       style="fill:none;stroke:#136798;stroke-opacity:1;stroke-width:0.75;stroke-linecap:butt;stroke-linejoin:miter;stroke-miterlimit:10;stroke-dasharray:none"
       id="path3147" /><text
       transform="matrix(1,0,0,-1,634.61,241.46)"
       id="text3149"><tspan
         style="fill:#136798;fill-opacity:1;fill-rule:nonzero;stroke:none;font-family:Tahoma;font-variant:normal;font-weight:normal;font-size:9.96;writing-mode:lr;-inkscape-font-specification:Tahoma"
         x="0 5.54772 10.78668"
         y="0"
         sodipodi:role="line"
         id="tspan3151">Sec</tspan></text>
<text
       transform="matrix(1,0,0,-1,632.33,229.46)"
       id="text3153"><tspan
         style="fill:#136798;fill-opacity:1;fill-rule:nonzero;stroke:none;font-family:Tahoma;font-variant:normal;font-weight:normal;font-size:9.96;writing-mode:lr;-inkscape-font-specification:Tahoma"
         x="0 3.71508 12.11136 17.61924"
         y="0"
         sodipodi:role="line"
         id="tspan3155">Impl</tspan></text>
<path
       d="m 480.13,299.12 126,0 0,24 -126,0 0,-24 z"
       style="fill:#99ff99;fill-opacity:1;fill-rule:evenodd;stroke:none"
       id="path3157" /><path
       d="m 480.13,299.12 126,0 0,24 -126,0 0,-24 z"
       style="fill:none;stroke:#136798;stroke-opacity:1;stroke-width:0.75;stroke-linecap:butt;stroke-linejoin:miter;stroke-miterlimit:10;stroke-dasharray:none"
       id="path3159" /><text
       transform="matrix(1,0,0,-1,492.86,307.1)"
       id="text3161"><tspan
         style="fill:#136798;fill-opacity:1;fill-rule:nonzero;stroke:none;font-family:Tahoma;font-variant:normal;font-weight:normal;font-size:9.96;writing-mode:lr;-inkscape-font-specification:Tahoma"
         x="0 5.54772 10.78668 14.37228 19.33236 21.6132 26.16492 31.43376 34.78032 40.32804 43.65468 49.18248 54.69036 58.53492 64.08264 68.973 74.24184 76.52268 81.79152 85.13808 90.54636 96.05424"
         y="0"
         sodipodi:role="line"
         id="tspan3163">Service Stub/Skeletons</tspan></text>
<path
       d="m 107.88,299.12 126,0 0,24 -126,0 0,-24 z"
       style="fill:#99ff99;fill-opacity:1;fill-rule:evenodd;stroke:none"
       id="path3165" /><path
       d="m 107.88,299.12 126,0 0,24 -126,0 0,-24 z"
       style="fill:none;stroke:#136798;stroke-opacity:1;stroke-width:0.75;stroke-linecap:butt;stroke-linejoin:miter;stroke-miterlimit:10;stroke-dasharray:none"
       id="path3167" /><text
       transform="matrix(1,0,0,-1,120.55,307.1)"
       id="text3169"><tspan
         style="fill:#136798;fill-opacity:1;fill-rule:nonzero;stroke:none;font-family:Tahoma;font-variant:normal;font-weight:normal;font-size:9.96;writing-mode:lr;-inkscape-font-specification:Tahoma"
         x="0 5.54772 10.78668 14.37228 19.33236 21.6132 26.16492 31.43376 34.78032 40.32804 43.65468 49.18248 54.69036 58.53492 64.08264 68.973 74.24184 76.52268 81.79152 85.13808 90.54636 96.05424"
         y="0"
         sodipodi:role="line"
         id="tspan3171">Service Stub/Skeletons</tspan></text>
<path
       d="m 107.88,371.87 126,0 0,23.25 -126,0 0,-23.25 z"
       style="fill:#98d0f1;fill-opacity:1;fill-rule:evenodd;stroke:none"
       id="path3173" /><path
       d="m 107.88,371.87 126,0 0,23.25 -126,0 0,-23.25 z"
       style="fill:none;stroke:#136798;stroke-opacity:1;stroke-width:0.75;stroke-linecap:butt;stroke-linejoin:miter;stroke-miterlimit:10;stroke-dasharray:none"
       id="path3175" /><text
       transform="matrix(1,0,0,-1,112.75,379.51)"
       id="text3177"><tspan
         style="fill:#136798;fill-opacity:1;fill-rule:nonzero;stroke:none;font-family:Tahoma;font-variant:normal;font-weight:normal;font-size:9.96;writing-mode:lr;-inkscape-font-specification:Tahoma"
         x="0 5.6274 10.5576 15.81648 24.2028 29.71068 31.99152 37.27032 40.26828 46.25424 48.53508 50.81592 56.09472 61.61256 64.95912 68.18616 74.16216 79.69992 85.2078 87.48864 89.76948 94.36104 99.60996 102.95652 105.23736 110.64564"
         y="0"
         sodipodi:role="line"
         id="tspan3179">Example Client Application</tspan></text>
<path
       d="m 107.88,335.12 126,0 0,12 -126,0 0,-12 z"
       style="fill:#33cc33;fill-opacity:1;fill-rule:evenodd;stroke:none"
       id="path3181" /><path
       d="m 107.88,335.12 126,0 0,12 -126,0 0,-12 z"
       style="fill:none;stroke:#136798;stroke-opacity:1;stroke-width:0.75;stroke-linecap:butt;stroke-linejoin:miter;stroke-miterlimit:10;stroke-dasharray:none"
       id="path3183" /><text
       transform="matrix(1,0,0,-1,127.63,337.1)"
       id="text3185"><tspan
         style="fill:#136798;fill-opacity:1;fill-rule:nonzero;stroke:none;font-family:Tahoma;font-variant:normal;font-weight:normal;font-size:9.984;writing-mode:lr;-inkscape-font-specification:Tahoma"
         x="0 5.521152 10.772736 14.386944 19.309056 21.595392 26.148096 31.39968 34.774272 40.295424 45.816576 51.06816 55.670784 57.95712 61.05216 63.338496 67.8912 71.126016 77.116416 82.6176"
         y="0"
         sodipodi:role="line"
         id="tspan3187">Service Specific API</tspan></text>
<path
       d="m 107.88,149.87 126,0 0,29.25 -126,0 0,-29.25 z"
       style="fill:#c0c0c0;fill-opacity:1;fill-rule:evenodd;stroke:none"
       id="path3189" /><path
       d="m 107.88,149.87 126,0 0,29.25 -126,0 0,-29.25 z"
       style="fill:none;stroke:#136798;stroke-opacity:1;stroke-width:0.75;stroke-linecap:butt;stroke-linejoin:miter;stroke-miterlimit:10;stroke-dasharray:none"
       id="path3191" /><text
       transform="matrix(1,0,0,-1,130.63,166.44)"
       id="text3193"><tspan
         style="fill:#136798;fill-opacity:1;fill-rule:nonzero;stroke:none;font-family:Tahoma;font-variant:normal;font-weight:normal;font-size:9.96;writing-mode:lr;-inkscape-font-specification:Tahoma"
         x="0 5.75688 9.34248 14.63124 20.14908 24.59124 30.09912 35.5074 39.093 42.45948 45.80604 51.78204 57.3198 62.58864 68.09652 71.463 76.73184"
         y="0"
         sodipodi:role="line"
         id="tspan3195">Transport Adapter</tspan></text>
<text
       transform="matrix(1,0,0,-1,136.03,154.44)"
       id="text3197"><tspan
         style="fill:#136798;fill-opacity:1;fill-rule:nonzero;stroke:none;font-family:Tahoma;font-variant:normal;font-weight:normal;font-size:9.96;writing-mode:lr;-inkscape-font-specification:Tahoma"
         x="0 3.71508 12.11136 17.61924 19.90008 25.17888 33.5652 38.83404 44.35188 47.69844 52.96728 56.31384 58.59468 64.00296"
         y="0"
         sodipodi:role="line"
         id="tspan3199">Implementation</tspan></text>
<path
       d="m 480.13,149.87 126,0 0,29.25 -126,0 0,-29.25 z"
       style="fill:#c0c0c0;fill-opacity:1;fill-rule:evenodd;stroke:none"
       id="path3201" /><path
       d="m 480.13,149.87 126,0 0,29.25 -126,0 0,-29.25 z"
       style="fill:none;stroke:#136798;stroke-opacity:1;stroke-width:0.75;stroke-linecap:butt;stroke-linejoin:miter;stroke-miterlimit:10;stroke-dasharray:none"
       id="path3203" /><text
       transform="matrix(1,0,0,-1,502.94,166.44)"
       id="text3205"><tspan
         style="fill:#136798;fill-opacity:1;fill-rule:nonzero;stroke:none;font-family:Tahoma;font-variant:normal;font-weight:normal;font-size:9.96;writing-mode:lr;-inkscape-font-specification:Tahoma"
         x="0 5.75688 9.34248 14.63124 20.14908 24.59124 30.09912 35.5074 39.093 42.45948 45.80604 51.78204 57.3198 62.58864 68.09652 71.463 76.73184"
         y="0"
         sodipodi:role="line"
         id="tspan3207">Transport Adapter</tspan></text>
<text
       transform="matrix(1,0,0,-1,508.34,154.44)"
       id="text3209"><tspan
         style="fill:#136798;fill-opacity:1;fill-rule:nonzero;stroke:none;font-family:Tahoma;font-variant:normal;font-weight:normal;font-size:9.96;writing-mode:lr;-inkscape-font-specification:Tahoma"
         x="0 3.71508 12.11136 17.61924 19.90008 25.17888 33.5652 38.83404 44.35188 47.69844 52.96728 56.31384 58.59468 64.00296"
         y="0"
         sodipodi:role="line"
         id="tspan3211">Implementation</tspan></text>
</g></svg>
